<svg width="1000" height="1000" viewBox="0 0 1000 1000" fill="none" xmlns="http://www.w3.org/2000/svg">
<rect width="1000" height="1000" rx="100" fill="white"/>
<g clip-path="url(#clip0_1058_190)">
<path d="M728.479 291.45C747.107 306.238 759.417 329.085 757.973 353.118C751.682 350.632 748.38 336.844 741.517 333.586C735.041 331.128 746.45 344.259 747.122 346.488C749.881 351.603 755.228 362.234 755.228 367.849V384.98C755.228 385.137 754.027 386.995 752.812 386.023C750.224 383.823 746.064 371.192 740.831 370.249C744.663 386.281 744.734 406.041 737.729 420.944C736.485 421.587 736.714 419.943 736.528 419.429C722.345 369.592 662.084 395.868 638.279 422.987C635.334 426.273 620.665 446.448 618.95 446.905C616.777 447.477 616.233 444.69 614.975 443.562C611.93 440.847 598.677 430.002 595.631 429.316C569.725 428.731 540.56 459.536 528.922 480.254C520.773 481.668 526.577 458.807 527.535 454.535C516.183 463.394 525.991 443.562 527.664 439.918C529.894 436.132 533.454 433.146 537.157 430.888L526.863 431.231C525.919 425.116 563.063 400.983 568.696 403.812L564.578 399.026C584.494 392.324 589.841 398.483 607.097 405.184L609.156 388.738L598.176 389.424C598.905 380.337 608.684 372.793 615.318 367.492C614.217 364.048 604.939 369.506 607.426 364.763C608.927 361.919 622.495 351.489 625.826 349.574C641.424 344.073 649.874 324.37 666.759 320.898C660.597 286.564 635.248 273.104 604.653 264.174C592.472 278.062 587.053 316.754 571.412 320.898L569.697 310.625C567.952 312.597 561.705 318.526 561.247 320.727C560.833 322.755 564.192 327.056 562.52 328.128C560.232 329.585 557.559 326.213 556.072 326.499C550.639 332.429 539.273 334.372 531.266 333.257C527.463 332.814 524.89 328.628 522.031 326.399C521.116 328.342 524.461 334.143 521.673 333.943C518.585 333.372 507.705 322.355 507.205 318.869C506.318 312.597 522.631 307.696 525.262 301.195C527.721 295.122 524.261 296.408 523.017 292.836C520.158 284.563 524.247 276.29 523.26 269.989C504.445 241.585 501.486 215.594 528.865 191.033C533.225 187.075 539.359 183.517 543.29 179.417C545.277 177.345 553.584 164 554.585 163.986C557.358 168.529 556.615 180.831 556 185.946C549.395 200.006 530.695 193.005 541.546 218.138C541.961 218.938 541.546 219.781 542.904 219.466C547.408 210.594 556.601 201.678 566.237 198.906C569.582 197.677 563.263 210.679 563.849 211.937C581.606 177.545 591.957 195.219 611.873 175.973C613.488 174.244 620.308 164.343 621.78 164.643C628.6 183.475 621.709 192.891 608.413 205.75C613.86 203.978 618.964 200.263 624.869 200.277L622.824 205.064C638.965 196.534 663.914 203.249 679.054 209.522C679.912 210.336 679.84 210.822 679.74 211.908L665.772 212.68L655.064 215.323C675.909 221.024 706.647 234.526 718.842 252.329C717.827 253.229 705.861 249.243 702.744 249.572C698.655 254.644 720.472 266.174 723.975 269.489C730.48 275.733 741.274 290.693 743.533 299.623C737.214 297.794 732.839 291.293 726.391 289.35C726.577 290.407 727.778 290.807 728.45 291.393L728.479 291.45ZM637.95 237.312C625.312 235.926 613.031 223.324 600.235 222.238C600.921 239.484 598.748 247.385 580.348 251.015C579.118 249.6 583.307 239.67 582.064 237.312C577.803 248.943 568.825 255.63 558.731 261.974C557.23 262.188 557.902 261.802 557.744 260.945C555.671 250.186 555.457 239.227 557.03 228.411C534.984 240.599 525.877 266.746 526.863 291.45C528.822 293.479 554.528 275.605 557.659 273.233C560.847 271.447 563.935 265.16 567.309 266.432C562.348 270.475 554.771 297.765 546.636 286.063C545.32 285.278 533.811 293.079 531.424 294.336C530.709 294.722 529.136 294.765 528.979 294.951C530.909 306.696 518.113 312.397 511.194 317.612C509.378 320.684 518.985 328.985 521.03 331.2C520.701 327.213 516.712 323.498 518.042 318.969C521.33 317.483 525.019 318.54 528.493 318.098C535.556 317.726 544.019 312.982 550.696 315.611C552.712 317.44 555.914 326.085 559.789 326.399C557.516 321.555 552.111 314.354 559.117 310.996C563.706 308.367 562.405 284.406 568.038 289.035C569.239 289.721 569.511 296.194 571.098 295.551C577.317 294.093 580.291 263.045 583.851 279.062C589.283 282.849 597.919 262.374 602.723 261.988C618.578 266.36 636.764 268.446 649.645 279.448C658.995 287.435 671.119 308.925 670.933 321.284C670.876 324.942 665.386 324.641 662.441 326.499C638.579 342.702 617.334 381.751 609.885 408.299C606.969 411.542 603.023 408.327 599.22 407.941C564.107 404.141 537.171 437.832 531.681 469.609C553.913 442.061 588.454 398.611 618.435 442.876C631.445 420.158 650.017 401.783 667.116 382.58C689.162 355.404 705.16 396.482 709.306 342.159C701.886 340.916 697.354 347.502 691.478 350.374C690.449 343.359 695.238 337.529 697.483 331.371C700.514 323.07 701.943 314.654 702.444 305.838L689.09 323.656C686.345 326.828 686.56 322.184 686.703 319.884C687.017 302.738 699.084 282.12 685.316 267.46C683.472 268.003 684.744 274.904 682.228 272.947C669.975 253.472 656.122 234.44 632.861 227.696C631.016 228.682 639.266 235.926 637.993 237.298L637.95 237.312ZM739.459 332.557L738.1 331.2C737.9 332.629 738.029 332.757 739.459 332.557Z" fill="#502D1F"/>
<path d="M263.128 257.187C259.84 281.606 266.831 308.21 267.588 333.257C284.116 332.486 302.502 335.158 318.343 330.857C319.944 329.642 320.401 325.899 322.946 325.17C328.794 323.484 353.313 331.386 357.059 336.029C362.534 342.816 349.682 345.317 345.778 348.66C342.104 351.789 341.89 354.647 339.288 357.933C332.397 366.634 315.655 364.706 305.676 365.463C292.865 366.534 279.483 369.035 266.916 367.506C262.356 506.501 275.881 654.798 247.015 792.378C212.331 655.026 229.044 508.601 223.711 367.506C205.583 366.963 174.83 369.649 159.475 359.733C156.959 357.019 157.087 353.889 153.299 351.175C148.109 347.474 130.009 346.545 138.987 337.33C142.633 333.586 160.676 325.227 165.794 324.999C171.27 324.756 171.07 328.471 174.301 329.514C189.055 332.572 207.799 332.071 223.082 332.257L229.902 259.23C224.855 258.53 208.085 262.031 211.015 252.358C219.122 242.128 238.037 190.262 250.504 193.748C264.057 209.994 269.804 234.412 280.341 253.044C281.356 254.144 279.827 257.173 278.926 257.173C275.723 257.173 265.258 256.53 263.156 257.173L263.128 257.187ZM235.006 253.072H276.495L250.775 200.978C244.828 206.179 240.51 217.466 235.921 224.51C230.874 234.926 217.049 248.357 235.006 253.072ZM257.981 258.559C255.951 258.488 249.717 266.246 249.717 267.132L257.981 277.062V258.559ZM258.667 279.805C257.666 278.62 249.574 288.621 249.045 289.736L260.04 303.095L258.667 279.805ZM263.471 331.886L260.397 304.481C243.913 321.284 245.328 312.054 263.471 331.886ZM262.098 671.086C261.655 577.813 262.999 483.483 261.441 390.439C261.183 384.923 254.664 364.606 249.074 364.763C249.589 463.194 247.387 561.739 248.745 660.099L262.098 671.072V671.086ZM244.799 660.67C245.042 660.256 245.528 655.441 244.27 655.341C241.053 660.756 234.048 663.828 229.516 668.357L229.173 671.772L244.785 660.67H244.799ZM262.027 675.316L248.388 664.928C250.018 693.133 244.942 722.124 249.417 749.9C252.391 748.942 261.126 679.631 262.027 675.316Z" fill="#502D1F"/>
<path d="M408.871 626.55C413.103 623.578 425.556 615.105 426.542 610.29C427.329 606.461 423.569 598.602 419.666 599.26C417.292 599.66 413.947 603.032 410.93 602.575C411.574 594.245 426.728 584.329 434.549 583.371C435.75 583.543 441.74 589.558 442.827 590.915C455.837 605.518 419.051 624.264 409.014 631.494C409.472 671.229 407.613 711.907 411.087 751.457C422.282 774.204 424.927 749.9 422.582 738.941C418.894 740.827 412.917 741.198 414.633 735.497C415.877 731.397 435.435 719.595 439.295 720.395C445.229 734.054 443.098 753.929 431.146 763.602C422.025 770.989 403.896 778.976 394.803 767.746C389.856 761.644 391.386 748.971 391.072 741.327C389.914 713.336 390.628 685.103 389.642 657.098C391.529 584.257 347.323 785.949 341.318 793.779C339.088 814.068 310.008 833.171 292.037 836.029C283.444 835.586 279.784 820.74 278.755 813.811C275.309 790.735 281.085 768.088 285.603 745.642C286.976 742.198 299.485 734.869 303.088 734.283C305.076 733.954 317.485 738.984 320.173 740.212C322.504 741.27 330.71 744.87 330.71 747.528C330.71 751.714 309.751 762.516 304.976 762.273C302.874 759.987 310.051 757.415 310.094 756.444C309.236 755.029 301.945 751.271 301.201 751.986C297.741 767.517 290.607 819.311 310.065 824.298C318.772 821.326 323.09 800.565 325.534 792.421C339.646 745.556 351.24 697.891 364.994 650.911C366.552 647.325 347.137 655.784 347.309 655.526C345.35 657.398 340.761 669.986 343.177 672.329C344.492 673.615 349.51 672.715 348.424 675.473C347.58 677.573 334.084 685.089 331.525 685.374C316.728 686.203 325.906 669.243 329.881 662.428C337.444 650.111 354.986 646.925 367.553 642.167C376.303 619.477 375.602 587.472 401.537 577.099C403.91 576.127 408.871 573.784 408.871 578.256V626.564V626.55ZM385.553 636.137C394.103 636.237 388.67 627.779 389.656 622.435C387.769 624.607 385.911 633.88 385.553 636.137Z" fill="#502D1F"/>
<path d="M831.874 566.083C830.301 567.769 825.355 568.155 823.825 570.355C832.46 574.37 840.967 579.428 848.373 585.229L847.172 617.892L818.621 632.737C809.042 627.965 799.763 621.935 790.556 616.277L790.885 582.7C790.599 582.314 783.15 586.229 781.577 584.129L750.767 556.681C746.264 560.482 722.388 592.487 719.886 592.987C692.35 586.729 660.125 581.385 633.461 572.47C628.914 570.798 627.442 568.783 625.941 564.225C618.907 540.207 614.289 512.088 609.428 487.441C627.356 467.823 644.269 443.848 665.043 427.159C670.561 423.101 676.18 425.845 682.128 427.216C705.646 432.617 728.578 440.604 751.983 446.505C756.129 447.505 755.457 452.778 756.372 456.507C758.159 463.78 759.889 471.109 762.048 478.282C820.265 466.009 799.806 471.067 844.713 510.788L844.898 514.36L831.86 566.111L831.874 566.083ZM742.89 452.492L670.018 434.089C667.43 434.546 654.649 448.849 652.018 451.792C643.426 462.036 629.715 475.482 623.567 486.741L693.78 505.115L742.904 452.492H742.89ZM720.944 584.057L722.988 583.014L768.967 528.162C764.149 504.472 757.244 481.297 751.11 457.964L748.709 460.008L703.216 513.96L703.259 516.36L720.944 584.043V584.057ZM842.339 512.102C830.115 500.057 815.804 490.07 803.966 477.539L768.61 481.968C765.622 482.211 768.553 485.983 769.268 488.155C773.099 510.159 781.949 510.788 798.19 522.232L842.339 512.102ZM692.665 517.746C687.518 514.631 626.112 497.9 618.749 495.656L634.29 564.925L714.081 586.115L692.665 517.746ZM842.339 514.86C828.014 518.903 813.231 522.218 799.506 527.905L784.737 580.642C800.035 575.799 814.689 569.283 829.644 563.497L842.339 514.86ZM794.244 525.904C788.197 523.961 782.878 520.746 777.874 516.903C777.074 517.975 781.005 527.848 779.061 530.062L758.759 556.424L780.276 579.256L794.244 525.904ZM821.766 573.098V583.371C828.657 583.014 835.477 584.986 842.354 583.714C835.777 580.842 828.957 573.584 821.766 573.098ZM818.335 575.156C811.801 578.099 803.223 579.071 797.761 583.371C801.807 583.529 805.153 582.114 809.056 583.414C817.434 583.471 819.264 585.186 818.335 575.17V575.156ZM816.276 586.801L795.703 585.429L804.624 604.618C806.325 605.475 815.461 587.758 816.276 586.801ZM843.712 586.801H823.138L832.403 605.304C834.076 605.547 843.998 588.315 843.712 586.801ZM831.359 608.033C826.627 602.618 825.34 591.959 819.021 588.858L808.727 606.661L831.359 608.033ZM792.958 612.848C808.956 604.161 804.352 609.69 794.316 589.558L792.958 612.848ZM845.771 611.133C846.528 604.389 845.213 596.431 845.771 589.544L834.276 607.718C834.333 608.318 843.254 614.577 844.069 614.891C845.17 615.32 845.685 611.862 845.771 611.133ZM829.987 610.105L808.041 608.733C807.011 609.719 817.405 626.264 817.648 629.279L819.321 628.565L829.972 610.105H829.987ZM816.276 629.293L804.967 609.447C803.88 611.005 795.388 614.42 795.016 614.92C793.072 616.334 815.961 628.522 816.276 629.293ZM843.712 617.634C844.012 615.105 833.761 609.69 832.131 610.19L820.393 629.293L843.712 617.634Z" fill="#502D1F"/>
<path d="M169.555 555.895C184.424 567.84 172.228 567.697 195.904 555.938C207.699 551.366 208.328 551.68 207.956 564.554C207.256 588.658 208.929 612.962 209.329 637.138C208.328 657.012 215.377 660.084 193.159 658.784C160.205 655.898 140.132 617.363 156.43 588.615C154.672 587.458 148.081 578.856 147.137 578.685C146.051 578.485 144.406 580.242 143.148 580.671C131.954 584.486 126.149 578.828 127.751 567.34C128.894 559.096 141.919 544.522 149.382 540.978C162.764 534.206 176.675 540.35 169.569 555.909L169.555 555.895ZM203.796 557.338C203.424 556.995 195.261 559.739 194.045 560.267C190.914 561.625 180.492 569.112 178.433 568.697C176.818 568.383 167.267 558.267 166.881 556.838C170.241 542.764 166.996 538.049 151.055 543.322C132.097 552.295 116.942 592.116 151.698 571.726C145.078 577.942 160.348 582.185 160.476 588.344C145.236 620.235 166.996 656.641 202.795 654.769C207.856 656.384 205.083 654.155 206.555 650.54C175.917 658.213 152.227 623.035 167.582 596.845C174.573 586.586 192.702 576.727 204.211 572.455C204.94 571.441 204.568 558.024 203.825 557.338H203.796Z" fill="#502D1F"/>
<path d="M313.168 490.57C313.368 490.855 314.469 490.898 314.269 491.856C314.841 502.629 314.483 514.102 315.598 524.776C315.684 525.619 317.114 537.063 318.329 535.406C319.13 532.805 317.357 528.976 317.629 526.876C317.943 524.461 330.196 516.417 332.726 521.361C321.36 528.148 334.056 537.263 323.476 549.108C321.36 551.123 313.297 555.981 310.594 555.181C308.078 554.423 307.192 547.422 306.162 545.193C305.133 542.964 303.246 547.036 301.53 548.422C295.997 552.895 282.687 561.525 278.927 551.166C275.41 541.478 277.24 501.786 279.456 490.741C281.472 480.697 286.819 475.253 296.655 472.51C300.858 479.239 308.907 484.34 313.168 490.598V490.57ZM294.339 547.051L301.273 499.414C301.03 496.499 293.896 491.084 291.608 488.798C290.793 498.385 285.932 544.007 294.339 547.036V547.051Z" fill="#502D1F"/>
<path d="M126.978 352.446C125.134 357.719 113.267 362.305 107.763 363.734L107.177 364.52C105.318 391.224 99.8141 417.586 98.1842 444.262C109.35 436.646 123.461 456.678 135.9 454.549C136.228 449.277 136.2 438.932 129.037 439.118C134.699 445.548 130.638 445.391 125.134 448.263C123.661 448.391 119.801 443.462 120.173 441.99C120.716 439.861 137.529 429.817 140.246 430.059C156.916 437.075 148.123 458.721 133.14 461.722C120.087 466.208 109.236 457.636 98.3701 451.906C96.1112 451.535 89.6203 457.55 85.1311 456.321C80.3559 455.021 81.9429 444.605 78.9834 443.19C75.2233 443.09 70.0907 451.22 70.7198 443.362C70.8627 442.762 79.5982 438.147 80.6847 438.147C83.6299 438.004 84.2447 441.761 85.8173 442.89L94.7386 366.834C89.0485 367.792 83.4155 369.692 77.5966 369.578C77.3393 374.579 84.5592 367.463 82.7578 371.65C81.2137 374.093 71.8778 378.851 68.947 379.137C60.9407 379.922 63.9859 370.249 68.7325 366.534C77.6538 359.562 80.6704 362.805 90.278 362.019C102.001 361.062 115.984 356.476 126.978 352.446Z" fill="#502D1F"/>
<path d="M513.81 540.207C517.999 538.892 521.616 537.549 526.148 538.149C525.219 543.85 505.417 550.294 500.785 551.166C499.37 530.919 503.773 509.844 500.785 489.812C500.571 488.869 501.386 487.826 499.756 488.126L487.246 499.957C486.031 500.314 485.845 541.235 485.687 542.936C499.799 537.763 473.692 555.038 472.649 552.537L473.993 501.457C473.807 493.256 480.798 482.64 468.531 481.268C467.602 482.097 473.835 486.083 473.249 488.326C472.82 490.012 463.484 495.371 461.897 495.513C460.153 495.671 455.621 491.87 455.578 489.855C457.179 482.354 477.753 469.123 485.23 475.21C492.822 480.154 485.931 486.412 487.06 493.599C491.664 489.798 510.207 470.695 513.795 482.297V540.207H513.81Z" fill="#502D1F"/>
<path d="M521.888 635.623C524.175 641.381 524.061 651.083 523.417 657.384C530.966 650.883 537.257 641.038 548.108 640.253L546.75 695.762C547.036 696.148 553.97 691.175 555.657 692.676C550.081 699.52 543.647 707.935 533.711 706.735L534.74 653.283C531.524 657.541 527.621 661.428 523.403 664.728L522.045 701.934C534.011 698.72 510.622 713.908 509.692 711.536C509.535 698.077 510.393 653.726 512.437 641.638L504.202 642.339C504.76 644.01 506.69 643.367 507.962 644.396C508.348 644.71 511.093 649.111 511.093 649.54C511.093 651.512 502.93 655.969 500.056 655.055C482.857 646.982 515.254 629.579 521.873 635.637L521.888 635.623Z" fill="#502D1F"/>
<path d="M332.74 497.028C328.665 500.157 324.205 503.658 319.029 504.558C322.117 497.943 325.534 490.898 331.839 486.869C345.35 478.211 344.392 484.797 346.351 496.799C348.41 509.473 349.41 522.347 351.283 535.049C351.426 535.978 351.555 537.135 352.627 536.078C356.973 522.532 368.997 509.873 362.235 494.971C358.603 498.786 353.971 502.5 348.524 503.186C347.852 502.458 350.94 485.669 352.055 483.769C353.385 481.483 363.021 475.267 365.008 476.125C385.053 492.813 374.973 510.716 364.851 530.134C362.034 536.392 359.39 546.908 354.328 551.137C349.267 555.367 340.761 559.796 339.788 549.937L332.726 497.014L332.74 497.028Z" fill="#502D1F"/>
<path d="M584.452 608.047C587.354 615.52 578.447 618.377 573.457 621.521L572.814 640.252L578.962 638.852C579.004 635.694 578.804 634.523 575.559 634.423C579.448 629.993 584.909 626.436 590.642 625.164C596.089 638.181 583.022 643.41 572.9 646.496C571.227 664.271 572.542 682.317 572.113 700.205C572.514 704.849 577.403 697.276 578.461 696.262C581.063 689.889 575.259 687.217 575.659 685.231C576.131 682.845 586.725 676.287 589.27 677.573C591.2 678.545 594.574 685.517 594.116 687.76C544.706 741.813 561.434 688.789 559.775 651.912C557.616 652.197 550.396 658.455 551.712 653.069C552.341 650.311 559.675 646.525 559.804 645.953C560.633 637.238 560.704 628.465 560.118 619.72C562.263 616.606 582.722 606.489 584.48 608.047H584.452Z" fill="#502D1F"/>
<path d="M936.986 706.721C937.616 715.822 926.307 720.623 919.158 723.181L921.903 727.281C915.198 727.553 907.878 727.253 902.702 722.495C901.63 723.909 907.907 731.768 906.806 732.768C892.866 733.711 885.375 720.48 878.698 710.836C876.01 716.48 885.031 731.439 881.1 732.768C869.605 727.081 860.569 715.208 860.169 701.92C856.423 706.806 854.55 714.579 850.933 703.949C845.014 690.218 865.959 663.413 877.611 680.731C887.633 693.218 884.174 701.191 902.459 708.678C912.11 712.622 929.552 715.665 936.986 706.721ZM923.948 714.951C876.625 715.808 878.598 675.515 864.344 683.488C862.628 685.903 875.024 698.191 877.311 700.22C888.863 710.007 909.136 720.452 923.962 714.951H923.948Z" fill="#502D1F"/>
<path d="M465.116 660.127C467.074 652.026 480.742 642.91 488.634 643.824C491.522 644.696 492.637 650.168 494.31 652.554C498.699 658.813 504.275 656.784 494.61 665.285C472.379 681.545 474.952 672.929 476.782 702.62C478.283 701.005 486.776 696.805 487.305 695.605C488.577 684.46 472.965 684.888 494.853 676.001C503.517 682.645 503.36 690.918 493.867 696.733C490.193 699.52 469.605 711.864 466.174 711.536C458.897 707.407 465.073 669.4 465.13 660.141C458.525 676.601 457.281 700.62 439.081 709.836C416.692 721.838 427.586 669.843 425.342 658.77C424.241 659.113 424.041 660.584 422.983 661.542C421.51 662.885 413.061 668.257 411.631 666.985C414.419 657.855 421.539 650.34 430.646 647.282C447.144 640.538 431.818 690.947 440.782 700.577C445.7 689.418 451.548 672.358 452.777 660.842C452.634 660.67 450.833 662.056 450.032 661.242C449.389 658.67 444.485 654.398 444.657 652.469C445 648.782 454.994 643.281 458.425 643.853C467.732 645.396 465.645 653.426 465.116 660.17V660.127ZM476.096 674.515C494.668 663.342 484.874 667.743 478.483 653.269C477.025 655.698 475.381 673.529 476.096 674.515Z" fill="#502D1F"/>
<path d="M408.742 474.553C410.715 475.71 412.688 486.012 412.902 488.555C415.59 502.8 403.166 509.116 392.786 514.188C391.156 516.36 388.011 534.62 388.297 537.806C388.955 544.922 398.891 547.408 400.635 540.207C394.645 544.965 392.372 528.205 393.086 525.619C393.472 524.247 404.61 517.346 407.526 519.975C409.07 521.375 413.445 529.605 413.645 531.72C413.088 545.922 363.778 570.555 377.66 529.233C379.79 518.846 385.009 496.456 389.312 487.426C391.199 483.483 404.924 472.324 408.727 474.553H408.742ZM399.949 490.87C397.547 488.955 393.472 510.187 393.787 510.059C402.78 508.03 400.392 497.814 399.949 490.87Z" fill="#502D1F"/>
<path d="M552.898 538.835C545.492 540.821 545.992 528.862 544.834 524.861C545.363 522.147 556.786 516.074 559.617 517.732C560.032 517.974 564.335 525.161 564.678 526.019C573.342 540.635 524.904 562.811 527.52 539.878C527.878 532.063 531.695 519.718 533.74 511.816C537.929 494.699 540.059 477.668 559.446 472.395C564.707 472.667 565.75 491.056 564.936 495.013C563.034 503.972 552.025 508.644 545.02 512.116C543.161 514.345 539.959 534.392 540.688 537.663C541.846 542.807 551.296 544.465 552.883 538.849L552.898 538.835ZM546.049 507.987C555.013 506.187 553.069 494.813 551.525 488.127L546.049 507.987Z" fill="#502D1F"/>
<path d="M826.556 659.441C828.957 662.728 815.804 669.829 813.159 669.686C811.386 669.586 800.95 658.584 798.09 657.398C784.651 671.129 822.881 687.16 824.425 692.133C822.038 699.777 809.285 713.336 801.007 714.151C797.118 713.322 784.966 701.334 780.319 699.148C779.419 698.077 776.03 698.734 775.801 698.519C773.114 695.89 786.181 688.06 789.14 688.903L808.47 703.235C809.971 702.749 812.802 699.32 810.757 698.191C804.181 692.876 781.534 679.702 781.92 670.772C784.866 662.113 795.574 647.439 806.14 647.239C810.314 647.925 819.336 657.712 823.096 660.47L826.541 659.456L826.556 659.441Z" fill="#502D1F"/>
<path d="M183.237 443.576C185.939 442.119 183.437 438.675 184.023 436.546C184.609 434.418 192.658 430.045 194.445 431.303C197.562 433.517 193.044 433.846 192.444 435.975C190.6 442.533 194.789 449.12 188.269 455.121C178.776 461.694 176.86 462.465 174.301 451.12C173.357 450.22 171.842 453.435 170.898 454.221C167.624 456.95 159.375 462.294 155.115 460.365C149.153 457.65 151.426 440.876 151.669 435.703C152.155 423.816 151.14 402.769 166.395 400.397C167.825 400.54 179.091 411.885 181.021 413.914C182.322 423.787 181.378 433.76 183.222 443.576H183.237ZM164.708 453.178C166.295 451.578 169.369 424.887 170.941 420.615C171.442 418.915 164.222 412.771 163.678 412.757C162.921 412.742 162.706 414.428 162.62 415.114C162.263 422.473 157.902 450.277 164.694 453.178H164.708Z" fill="#502D1F"/>
<path d="M716.141 700.906C716.985 703.692 726.535 695.29 727.35 694.919C729.066 690.932 722.06 685.103 722.389 683.188C722.775 680.859 733.269 674.844 736.043 676.23C737.658 677.03 741.576 684.389 741.49 686.46C741.19 693.19 724.391 702.42 718.672 705.478C716.299 706.749 705.161 713.422 703.918 709.693C702.202 704.549 702.788 684.674 703.088 678.259C703.431 670.901 704.189 658.341 708.936 652.569C711.91 648.954 724.005 641.881 728.523 643.282C731.696 644.267 732.754 650.669 735.356 653.612C749.439 661.027 721.088 672.144 716.156 677.602V700.906H716.141ZM716.141 673.83C718.615 672.215 726.735 668.1 727.007 665.142C723.862 661.427 719.573 657.998 718.858 652.583C716.342 653.912 715.641 672.301 716.127 673.815L716.141 673.83Z" fill="#502D1F"/>
<path d="M434.262 484.697C449.345 474.053 447.287 481.225 454.235 493.856C455.994 496.499 459.21 496.057 454.864 500.829C452.605 503.315 442.411 510.073 439.709 507.001C435.52 502.229 439.609 502.215 440.31 501.029C441.039 500.3 436.921 489.012 435.277 491.541L434.906 541.207C435.149 542.122 437.622 540.836 437.007 542.593C436.278 544.665 423.525 552.037 421.924 550.48C421.409 530.248 425.312 507.058 420.551 487.426C417.092 490.027 415.934 483.826 415.176 481.711C415.548 479.711 425.041 474.181 427.042 474.396C430.288 474.739 434.562 481.311 434.276 484.697H434.262Z" fill="#502D1F"/>
<path d="M634.519 652.597C635.277 653.283 629.872 660.313 629.787 661.799C630.315 674.001 641.338 692.861 629.944 703.177C622.638 709.193 620.036 708.021 611.558 708.793C586.696 717.208 600.849 680.574 599.548 667.671C599.32 667.4 593.858 669.286 592.772 669.457C586.352 669.629 604.481 659.127 608.155 662.156C610.814 672.887 601.993 708.064 620.722 703.206C623.91 701.22 616.719 669.815 616.133 664.714C620.694 658.856 626.87 653.455 634.533 652.597H634.519Z" fill="#502D1F"/>
<path d="M762.105 656.712C757.229 658.384 759.417 697.405 758.659 701.249C759.202 701.849 764.035 697.948 764.135 700.906C761.233 703.035 747.307 713.394 745.62 707.764C745.334 691.676 747.136 674.83 746.993 658.57C746.45 656.584 738.772 657.655 740.187 654.383C740.817 652.912 749.709 648.054 751.511 647.825C756.114 647.239 758.388 651.497 760.489 651.812C762.777 652.155 769.296 644.025 775.358 648.597C777.331 650.083 783.15 660.213 782.564 662.385C781.977 664.557 768.681 673.844 765.951 673.115C761.762 672.001 768.438 667.986 768.638 667.671C769.711 665.985 763.892 655.412 762.105 656.712Z" fill="#502D1F"/>
<path d="M663.915 669.615C664.601 668.429 659.74 659.127 658.139 658.784C657.038 658.541 654.836 662.199 654.436 663.228L653.735 703.306C670.892 696.376 643.67 714.479 640.696 710.85L642.083 660.627C641.583 658.741 634.706 659.056 635.249 656.441C635.564 654.912 644.099 650.326 646.001 650.026C651.819 649.083 653.221 653.598 655.437 653.741C657.781 653.898 662.885 647.554 668.776 649.568C671.463 650.483 678.169 661.671 677.625 663.785C674.823 667.857 665.645 675.344 660.555 674.916C657.567 672.815 663.672 670.043 663.9 669.643L663.915 669.615Z" fill="#502D1F"/>
<path d="M182.479 519.589L180.477 509.359C170.912 512.674 164.221 504.758 170.312 496.114C176.746 483.554 216.391 477.182 206.698 499.571C205.668 501.257 203.166 502.2 203.123 503.486C203.023 506.43 206.969 514.688 206.526 518.617C206.526 527.633 208.499 536.821 206.212 545.694C202.409 547.065 198.777 547.337 194.888 548.765C187.597 551.294 176.931 562.682 173.643 550.78C177.003 539.907 168.353 539.878 166.037 532.348C166.38 528.962 178.647 520.118 182.479 519.575V519.589ZM169.511 533.334C172.371 534.02 174.401 537.692 176.703 539.507C183.594 532.091 193.773 525.461 202.795 521.732C204.768 518.803 200.278 507.33 200.407 503.472C200.436 502.4 205.011 499.614 205.711 496.542C208.37 484.969 193.559 486.698 186.496 488.984C172.771 493.156 161.233 511.016 184.595 507.301C184.595 508.601 182.564 507.816 182.521 509.659C182.479 511.502 186.982 518.775 186.568 520.589C181.335 524.076 172.042 527.576 169.511 533.32V533.334Z" fill="#502D1F"/>
<path d="M692.823 649.854V701.934C711.038 694.49 684.66 713.022 679.799 712.208V657.041C679.799 655.655 690.436 648.897 692.823 649.84V649.854Z" fill="#502D1F"/>
<path d="M875.109 630.822L881.442 649.84L846.515 663.499L837.551 623.807L875.109 630.822ZM870.462 641.638L841.654 628.607L847.83 660.127L870.462 641.638ZM872.478 632.751C871.735 631.979 853.907 629.751 851.262 629.293L871.477 639.566C872.921 639.281 872.736 633.008 872.493 632.751H872.478ZM877.997 645.739C877.11 642.881 876.238 638.752 873.894 636.837C873.15 640.667 875.066 643.481 877.997 645.739ZM878.683 649.154C878.955 648.797 873.122 642.896 872.264 643.053L853.306 658.755L878.683 649.154Z" fill="#502D1F"/>
<path d="M692.779 627.965C697.812 637.209 687.632 642.739 679.783 643.682C680.026 640.624 678.068 637.995 679.755 635.08C680.941 633.008 691.206 626.593 692.779 627.965Z" fill="#502D1F"/>
<path d="M244.771 224.453C262.242 220.895 260.812 251.615 244.585 246.943C233.348 243.713 235.121 226.425 244.771 224.453Z" fill="#502D1F"/>
<path d="M680.984 455.393C714.382 452.849 691.321 495.271 669.475 480.268C659.181 471.595 670.461 457.05 680.984 455.393Z" fill="#502D1F"/>
<path d="M639.867 511.559C652.934 510.559 662.599 530.862 650.089 536.22C633.204 543.45 622.567 512.874 639.867 511.559Z" fill="#502D1F"/>
<path d="M681.699 549.966C697.255 548.294 701.015 570.026 688.062 572.798C670.534 576.542 666.43 551.609 681.699 549.966Z" fill="#502D1F"/>
<path d="M736.543 508.816C749.611 506.358 747.623 532.62 734.999 532.034C724.534 531.534 726.178 510.773 736.543 508.816Z" fill="#502D1F"/>
<path d="M749.509 496.114C730.208 506.487 737.242 463.937 751.139 476.796C755.828 481.783 754.213 491.584 749.509 496.114Z" fill="#502D1F"/>
<path d="M728.308 545.151C741.376 543.007 737.63 570.112 724.72 567.597C716.499 565.997 718.715 546.722 728.308 545.151Z" fill="#502D1F"/>
<path d="M790.914 494.299C790.899 498.457 786.11 501.415 785.381 496.042C784.88 492.256 784.452 482.426 790.599 486.041L810.1 506.287C811.844 508.244 812.502 511.531 809.071 511.488C806.154 511.459 803.767 506.801 801.894 504.887C798.348 501.257 794.745 497.6 790.914 494.285V494.299Z" fill="#502D1F"/>
<path d="M821.022 605.261C817.577 607.39 819.65 599.988 819.021 599.145L816.29 599.831C815.261 598.76 820.851 590.944 821.766 596.073C822.009 597.431 821.852 604.775 821.022 605.275V605.261Z" fill="#502D1F"/>
<path d="M158.375 545.793C169.312 548.651 143.563 569.126 139.203 569.883C124.291 572.255 153.414 543.95 158.375 545.793Z" fill="#502D1F"/>
<path d="M201.722 492.27C201.865 500.243 182.178 504.315 175.688 502.515C176.317 492.142 194.03 488.541 201.722 492.27Z" fill="#502D1F"/>
<path d="M860.025 641.081C860.411 641.781 860.153 642.839 860.153 643.653C858.223 643.224 849.03 647.168 848.516 644.696C849.159 642.138 853.391 642.496 855.364 642.31C855.693 639.881 851.404 640.724 854.349 638.195C854.821 638.095 859.853 640.795 860.01 641.081H860.025Z" fill="#502D1F"/>
</g>
<defs>
<clipPath id="clip0_1058_190">
<rect width="873" height="672" fill="white" transform="translate(64 164)"/>
</clipPath>
</defs>
</svg>
